<svg width="319" height="225" viewBox="0 0 319 225" fill="none" xmlns="http://www.w3.org/2000/svg">
<path d="M165.52 91.1651V68.2368H146.004V39.5862C127.297 23.7687 110.822 16.1851 83.8661 16.1851H0V22.4293C24.2126 22.4293 24.5974 27.1075 24.5974 42.9644V197.396C24.5974 213.253 24.2126 217.951 0 217.951V224.185H75.2997C101.693 224.185 127.001 216.404 146.004 200.183V172.133H165.52V149.205H184V91.1651H165.52ZM144.386 172.133H130.345C119.67 193.535 110.032 213.529 83.8661 213.529C72.924 213.529 67.4678 212.228 60.1862 208.85V31.5396C67.4678 28.1614 72.924 26.8613 83.8661 26.8613C113.9 26.8613 124.879 42.8068 134.578 70.4626H144.376V172.133H144.386Z" fill="white"/>
<path d="M277.018 224.28H276.703C250.873 224.28 237.958 208.215 237.958 176.085V63.0001H210.238V50.715H237.958V21.105L269.458 3.95179e-05V50.715H310.093V63.0001H269.458V170.415C269.458 182.595 271.033 191.205 274.183 196.245C277.543 201.075 283.318 203.49 291.508 203.49C301.168 203.49 309.253 200.235 315.763 193.725L318.598 196.245C308.728 214.935 294.868 224.28 277.018 224.28Z" fill="white"/>
</svg>
